<svg width="24" height="23" viewBox="0 0 24 23" fill="none" xmlns="http://www.w3.org/2000/svg">
<path d="M2.66665 13.3322L13.1666 13.3333C14.3961 13.3333 15.4044 14.2848 15.4936 15.4925L15.5 15.6667V17.4167C15.4988 21.5 11.1646 22.6667 7.91665 22.6667C4.74083 22.6667 0.525463 21.5513 0.339671 17.6845L0.333313 17.4167V15.6655C0.333313 14.4361 1.28578 13.4277 2.49259 13.3386L2.66665 13.3322ZM15.7566 13.3333H21.3333C22.5627 13.3333 23.5711 14.2858 23.6602 15.4926L23.6666 15.6667V16.8333C23.6655 20.4057 20.3323 21.5 17.8333 21.5C17.04 21.5 16.1638 21.388 15.3366 21.1243C15.7286 20.674 16.0448 20.1595 16.2723 19.5762C16.9058 19.722 17.5008 19.75 17.8333 19.75L18.1442 19.743C19.2937 19.6927 21.745 19.319 21.9081 17.0725L21.9166 16.8333V15.6667C21.9166 15.3805 21.7092 15.1421 21.4378 15.0928L21.3333 15.0833H16.6071C16.5091 14.4984 16.2646 13.9671 15.9136 13.5198L15.7566 13.3333H21.3333H15.7566ZM2.66665 15.0822L2.54921 15.0938C2.4041 15.1234 2.30498 15.2021 2.25365 15.2525C2.20325 15.3038 2.12447 15.4022 2.09498 15.5477L2.08331 15.6655V17.4167C2.08331 18.5938 2.60831 19.4257 3.73648 20.0323C4.70032 20.5514 6.07274 20.8657 7.54632 20.911L7.91665 20.9167L8.28695 20.911C9.76033 20.8657 11.1319 20.5514 12.0968 20.0323C13.1533 19.4636 13.6818 18.697 13.7438 17.6324L13.75 17.4155V15.6667C13.75 15.3805 13.5425 15.1421 13.2712 15.0928L13.1666 15.0833L2.66665 15.0822ZM7.91665 0.5C10.8158 0.5 13.1666 2.85083 13.1666 5.75C13.1666 8.64917 10.8158 11 7.91665 11C5.01748 11 2.66665 8.64917 2.66665 5.75C2.66665 2.85083 5.01748 0.5 7.91665 0.5ZM18.4166 2.83333C20.6718 2.83333 22.5 4.6615 22.5 6.91667C22.5 9.17183 20.6718 11 18.4166 11C16.1615 11 14.3333 9.17183 14.3333 6.91667C14.3333 4.6615 16.1615 2.83333 18.4166 2.83333ZM7.91665 2.25C5.98698 2.25 4.41665 3.82033 4.41665 5.75C4.41665 7.67967 5.98698 9.25 7.91665 9.25C9.84631 9.25 11.4166 7.67967 11.4166 5.75C11.4166 3.82033 9.84631 2.25 7.91665 2.25ZM18.4166 4.58333C17.1298 4.58333 16.0833 5.62983 16.0833 6.91667C16.0833 8.2035 17.1298 9.25 18.4166 9.25C19.7035 9.25 20.75 8.2035 20.75 6.91667C20.75 5.62983 19.7035 4.58333 18.4166 4.58333Z" fill="#34344D"/>
</svg>
