<svg width="20" height="24" viewBox="0 0 20 24" fill="none" xmlns="http://www.w3.org/2000/svg">
<path d="M14.0834 12.2917C14.0834 11.8084 13.6916 11.4167 13.2084 11.4167H7.37502C6.89178 11.4167 6.50002 11.8084 6.50002 12.2917V12.8744C6.50002 14.0417 8.11364 14.9167 10.2917 14.9167C12.4696 14.9167 14.0834 14.0417 14.0834 12.8744V12.2917ZM12.3334 8.20306C12.3334 7.07508 11.4196 6.16668 10.2917 6.16668C9.16375 6.16668 8.25002 7.07508 8.25002 8.20306C8.25002 9.33104 9.16375 10.2455 10.2917 10.2455C11.4196 10.2455 12.3334 9.33104 12.3334 8.20306ZM0.666687 3.25001C0.666687 1.63918 1.97253 0.333344 3.58335 0.333344H17C18.6108 0.333344 19.9167 1.63918 19.9167 3.25001V19.875C19.9167 20.3582 19.5249 20.75 19.0417 20.75H2.41669C2.41669 21.3944 2.93903 21.9167 3.58335 21.9167H19.0417C19.5249 21.9167 19.9167 22.3084 19.9167 22.7917C19.9167 23.2749 19.5249 23.6667 19.0417 23.6667H3.58335C1.97253 23.6667 0.666687 22.3608 0.666687 20.75V3.25001ZM2.41669 3.25001V19H18.1667V3.25001C18.1667 2.60568 17.6444 2.08334 17 2.08334H3.58335C2.93903 2.08334 2.41669 2.60568 2.41669 3.25001Z" fill="#34344D"/>
</svg>
