<svg width="24" height="23" viewBox="0 0 24 23" fill="none" xmlns="http://www.w3.org/2000/svg">
<path d="M10.5417 14.3333C11.9914 14.3333 13.1667 15.5086 13.1667 16.9583V18.7107L13.1574 18.8371C12.795 21.3177 10.5667 22.5105 6.82792 22.5105C3.10254 22.5105 0.838845 21.3314 0.350198 18.8794L0.333328 18.7083V16.9583C0.333328 15.5086 1.50858 14.3333 2.95833 14.3333H10.5417ZM10.5417 16.0833H2.95833C2.47508 16.0833 2.08333 16.4751 2.08333 16.9583V18.6155C2.40975 20.0159 3.8924 20.7605 6.82792 20.7605C9.76338 20.7605 11.1794 20.024 11.4167 18.6421V16.9583C11.4167 16.4751 11.0249 16.0833 10.5417 16.0833ZM6.75 5C9.00516 5 10.8333 6.82817 10.8333 9.08333C10.8333 11.3385 9.00516 13.1667 6.75 13.1667C4.49483 13.1667 2.66666 11.3385 2.66666 9.08333C2.66666 6.82817 4.49483 5 6.75 5ZM21.0417 0.333334C22.4914 0.333334 23.6667 1.50859 23.6667 2.95833V7.04167C23.6667 8.49141 22.4914 9.66667 21.0417 9.66667H19.3443L16.8167 12.165C16.2437 12.731 15.3203 12.7256 14.7543 12.1526C14.4845 11.8796 14.3333 11.5114 14.3333 11.128L14.3326 9.65057C13.0205 9.50514 12 8.39257 12 7.04167V2.95833C12 1.50859 13.1753 0.333334 14.625 0.333334H21.0417ZM6.75 6.75C5.46133 6.75 4.41666 7.79467 4.41666 9.08333C4.41666 10.372 5.46133 11.4167 6.75 11.4167C8.03866 11.4167 9.08333 10.372 9.08333 9.08333C9.08333 7.79467 8.03866 6.75 6.75 6.75ZM21.0417 2.08333H14.625C14.1418 2.08333 13.75 2.47509 13.75 2.95833V7.04167C13.75 7.52491 14.1418 7.91667 14.625 7.91667H16.0817L16.083 10.4296L18.6254 7.91667H21.0417C21.5249 7.91667 21.9167 7.52491 21.9167 7.04167V2.95833C21.9167 2.47509 21.5249 2.08333 21.0417 2.08333Z" fill="#34344D"/>
</svg>
