<svg width="21" height="24" viewBox="0 0 21 24" fill="none" xmlns="http://www.w3.org/2000/svg">
<path d="M5.6264 0.333336C4.17658 0.333336 3.0014 1.50859 3.0014 2.95834V21.0417C3.0014 22.4914 4.17658 23.6667 5.6264 23.6667H17.875C19.3247 23.6667 20.5 22.4914 20.5 21.0417V2.95834C20.5 1.50859 19.3247 0.333336 17.875 0.333336H5.6264ZM5.6264 2.08334H17.875C18.3582 2.08334 18.75 2.47509 18.75 2.95834V21.0417C18.75 21.5249 18.3582 21.9167 17.875 21.9167H5.6264C5.14317 21.9167 4.7514 21.5249 4.7514 21.0417V2.95834C4.7514 2.47509 5.14317 2.08334 5.6264 2.08334ZM1.83333 15.5022H0.958332C0.515348 15.5022 0.149248 15.8315 0.0912647 16.2586L0.0833321 16.3772V18.125C0.0833321 18.568 0.412563 18.9341 0.839563 18.9921L0.958332 19H1.83333V15.5022H0.958332H1.83333ZM1.83333 10.8356H0.958332C0.515348 10.8356 0.149248 11.1648 0.0912647 11.5919L0.0833321 11.7106V13.4583C0.0833321 13.9013 0.412563 14.2674 0.839563 14.3254L0.958332 14.3333H1.83333V10.8356H0.958332H1.83333ZM1.83333 6.16893H0.958332C0.515348 6.16893 0.149248 6.49811 0.0912647 6.9252L0.0833321 7.04393V8.79167C0.0833321 9.23465 0.412563 9.60074 0.839563 9.65868L0.958332 9.66667H1.83333V6.16893H0.958332H1.83333ZM7.3764 3.83334C6.89317 3.83334 6.5014 4.22509 6.5014 4.70834V7.62325C6.5014 8.10651 6.89317 8.49825 7.3764 8.49825H16.125C16.6082 8.49825 17 8.10651 17 7.62325V4.70834C17 4.22509 16.6082 3.83334 16.125 3.83334H7.3764ZM8.2514 5.58334H15.25V6.74825H8.2514V5.58334Z" fill="#34344D"/>
</svg>
