<svg width="21" height="21" viewBox="0 0 21 21" fill="none" xmlns="http://www.w3.org/2000/svg">
<path d="M2.25791 4.00912C1.20145 4.67999 0.5 5.86225 0.5 7.20833V14.7917C0.5 18.1744 3.24225 20.9167 6.625 20.9167H14.2083C15.5544 20.9167 16.7367 20.2153 17.4096 19.1579L17.267 19.1646L17.125 19.1667H6.625C4.20875 19.1667 2.25 17.208 2.25 14.7917V4.29167C2.25 4.19684 2.25266 4.10264 2.25791 4.00912ZM7.20833 0.5C5.11425 0.5 3.41667 2.19758 3.41667 4.29167V14.2083C3.41667 16.3024 5.11425 18 7.20833 18H17.125C19.2191 18 20.9167 16.3024 20.9167 14.2083V4.29167C20.9167 2.19758 19.2191 0.5 17.125 0.5H7.20833ZM12.6694 11.1602L12.7768 11.2493L17.8011 16.1354C17.5895 16.2096 17.362 16.25 17.125 16.25H7.20833C6.97136 16.25 6.74383 16.2096 6.53222 16.1354L11.557 11.2493C11.8626 10.9522 12.3312 10.9224 12.6694 11.1602ZM7.20833 2.25H17.125C18.2526 2.25 19.1667 3.16408 19.1667 4.29167V14.2083C19.1667 14.4519 19.124 14.6855 19.0458 14.9022L13.9968 9.99457C13.0288 9.05353 11.5166 9.00652 10.4943 9.8534L10.3371 9.99457L5.28799 14.9033C5.20947 14.6863 5.16667 14.4524 5.16667 14.2083V4.29167C5.16667 3.16408 6.08075 2.25 7.20833 2.25ZM9.24953 4.87635C8.44452 4.87635 7.79197 5.52889 7.79197 6.33386C7.79197 7.13881 8.44452 7.79136 9.24953 7.79136C10.0544 7.79136 10.7069 7.13881 10.7069 6.33386C10.7069 5.52889 10.0544 4.87635 9.24953 4.87635Z" fill="#34344D"/>
</svg>
